<svg width="18" height="18" viewBox="0 0 18 18" fill="currentColor" xmlns="http://www.w3.org/2000/svg">
<path d="M4.25 13C4.25 13.4142 4.58579 13.75 5 13.75H10C10.4142 13.75 10.75 13.4142 10.75 13C10.75 12.5858 10.4142 12.25 10 12.25H5C4.58579 12.25 4.25 12.5858 4.25 13ZM4.25 9C4.25 9.41421 4.58579 9.75 5 9.75H13C13.4142 9.75 13.75 9.41421 13.75 9C13.75 8.58579 13.4142 8.25 13 8.25H5C4.58579 8.25 4.25 8.58579 4.25 9ZM4.25 5C4.25 5.41421 4.58579 5.75 5 5.75H13C13.4142 5.75 13.75 5.41421 13.75 5C13.75 4.58579 13.4142 4.25 13 4.25H5C4.58579 4.25 4.25 4.58579 4.25 5ZM2.3 17.5C1.8 17.5 1.375 17.325 1.025 16.975C0.675 16.625 0.5 16.2 0.5 15.7V2.3C0.5 1.8 0.675 1.375 1.025 1.025C1.375 0.675 1.8 0.5 2.3 0.5H15.7C16.2 0.5 16.625 0.675 16.975 1.025C17.325 1.375 17.5 1.8 17.5 2.3V15.7C17.5 16.2 17.325 16.625 16.975 16.975C16.625 17.325 16.2 17.5 15.7 17.5H2.3ZM2.3 16H15.7C15.7667 16 15.8333 15.9667 15.9 15.9C15.9667 15.8333 16 15.7667 16 15.7V2.3C16 2.23333 15.9667 2.16667 15.9 2.1C15.8333 2.03333 15.7667 2 15.7 2H2.3C2.23333 2 2.16667 2.03333 2.1 2.1C2.03333 2.16667 2 2.23333 2 2.3V15.7C2 15.7667 2.03333 15.8333 2.1 15.9C2.16667 15.9667 2.23333 16 2.3 16Z"/>
</svg>
