<svg width="20" height="20" viewBox="0 0 20 20" fill="currentColor" xmlns="http://www.w3.org/2000/svg">
<path d="M6.15 19.55C5.66667 19.55 5.25433 19.3793 4.913 19.038C4.571 18.696 4.4 18.2833 4.4 17.8C4.4 17.3167 4.571 16.904 4.913 16.562C5.25433 16.2207 5.66667 16.05 6.15 16.05C6.63333 16.05 7.04567 16.2207 7.387 16.562C7.729 16.904 7.9 17.3167 7.9 17.8C7.9 18.2833 7.729 18.696 7.387 19.038C7.04567 19.3793 6.63333 19.55 6.15 19.55ZM15.85 19.55C15.3667 19.55 14.9543 19.3793 14.613 19.038C14.271 18.696 14.1 18.2833 14.1 17.8C14.1 17.3167 14.271 16.904 14.613 16.562C14.9543 16.2207 15.3667 16.05 15.85 16.05C16.3333 16.05 16.7457 16.2207 17.087 16.562C17.429 16.904 17.6 17.3167 17.6 17.8C17.6 18.2833 17.429 18.696 17.087 19.038C16.7457 19.3793 16.3333 19.55 15.85 19.55ZM5.025 3.75L7.55 9.05H14.375C14.425 9.05 14.475 9.03733 14.525 9.012C14.575 8.98733 14.6083 8.95 14.625 8.9L17.325 4.025C17.3583 3.95833 17.3583 3.896 17.325 3.838C17.2917 3.77933 17.2417 3.75 17.175 3.75H5.025ZM4.3 2.25H18.175C18.5917 2.25 18.9043 2.425 19.113 2.775C19.321 3.125 19.3333 3.48333 19.15 3.85L15.925 9.65C15.775 9.93333 15.5627 10.154 15.288 10.312C15.0127 10.4707 14.7167 10.55 14.4 10.55H7.1L5.95 12.675C5.9 12.7583 5.896 12.8417 5.938 12.925C5.97933 13.0083 6.05 13.05 6.15 13.05H16.85C17.2642 13.05 17.6 13.3858 17.6 13.8C17.6 14.2142 17.2635 14.55 16.8493 14.55C12.8345 14.55 10.3651 14.55 6.15 14.55C5.48333 14.55 4.98333 14.2627 4.65 13.688C4.31667 13.1127 4.30833 12.5417 4.625 11.975L6.05 9.4L2.4 1.75H1.25C0.835786 1.75 0.5 1.41421 0.5 1C0.5 0.585786 0.835786 0.25 1.25 0.25H3.35L4.3 2.25Z"/>
</svg>
