<svg width="15" height="18" viewBox="0 0 15 18" fill="currentColor" xmlns="http://www.w3.org/2000/svg">
<path d="M2.8 17.5C2.3 17.5 1.875 17.325 1.525 16.975C1.175 16.625 1 16.2 1 15.7V3H0.75C0.335786 3 0 2.66421 0 2.25C0 1.83579 0.335786 1.5 0.75 1.5H4.5C4.5 1.01675 4.89175 0.625 5.375 0.625H9.625C10.1082 0.625 10.5 1.01675 10.5 1.5H14.25C14.6642 1.5 15 1.83579 15 2.25C15 2.66421 14.6642 3 14.25 3H14V15.7C14 16.2 13.825 16.625 13.475 16.975C13.125 17.325 12.7 17.5 12.2 17.5H2.8ZM12.5 3H2.5V15.7C2.5 15.7833 2.52933 15.8543 2.588 15.913C2.646 15.971 2.71667 16 2.8 16H12.2C12.2667 16 12.3333 15.9667 12.4 15.9C12.4667 15.8333 12.5 15.7667 12.5 15.7V3ZM4.9 13.25C4.9 13.6642 5.23579 14 5.65 14C6.06421 14 6.4 13.6642 6.4 13.25V5.75C6.4 5.33579 6.06421 5 5.65 5C5.23579 5 4.9 5.33579 4.9 5.75V13.25ZM8.6 13.25C8.6 13.6642 8.93579 14 9.35 14C9.76421 14 10.1 13.6642 10.1 13.25V5.75C10.1 5.33579 9.76421 5 9.35 5C8.93579 5 8.6 5.33579 8.6 5.75V13.25ZM2.5 3V16V15.7V3Z"/>
</svg>
