<svg width="20" height="18" viewBox="0 0 20 18" fill="currentColor" xmlns="http://www.w3.org/2000/svg">
<path d="M10 17.325L8.9 16.325C7.23333 14.825 5.85833 13.5333 4.775 12.45C3.69167 11.3667 2.83333 10.404 2.2 9.56199C1.56667 8.72066 1.125 7.95399 0.875 7.26199C0.625 6.57066 0.5 5.86666 0.5 5.14999C0.5 3.73333 0.979333 2.54566 1.938 1.58699C2.896 0.628994 4.08333 0.149994 5.5 0.149994C6.36667 0.149994 7.19167 0.353994 7.975 0.761994C8.75833 1.17066 9.43333 1.75833 10 2.52499C10.5667 1.75833 11.2417 1.17066 12.025 0.761994C12.8083 0.353994 13.6333 0.149994 14.5 0.149994C15.9167 0.149994 17.104 0.628994 18.062 1.58699C19.0207 2.54566 19.5 3.73333 19.5 5.14999C19.5 5.86666 19.375 6.57066 19.125 7.26199C18.875 7.95399 18.4333 8.72066 17.8 9.56199C17.1667 10.404 16.3083 11.3667 15.225 12.45C14.1417 13.5333 12.7667 14.825 11.1 16.325L10 17.325Z" />
</svg>
