<svg width="20" height="18" viewBox="0 0 20 18" fill="currentColor" xmlns="http://www.w3.org/2000/svg">
<path d="M10 17.325L8.9 16.325C7.23333 14.825 5.85833 13.5333 4.775 12.45C3.69167 11.3667 2.83333 10.404 2.2 9.56199C1.56667 8.72066 1.125 7.95399 0.875 7.26199C0.625 6.57066 0.5 5.86666 0.5 5.14999C0.5 3.73333 0.979333 2.54566 1.938 1.58699C2.896 0.628994 4.08333 0.149994 5.5 0.149994C6.36667 0.149994 7.19167 0.353994 7.975 0.761994C8.75833 1.17066 9.43333 1.75833 10 2.52499C10.5667 1.75833 11.2417 1.17066 12.025 0.761994C12.8083 0.353994 13.6333 0.149994 14.5 0.149994C15.9167 0.149994 17.104 0.628994 18.062 1.58699C19.0207 2.54566 19.5 3.73333 19.5 5.14999C19.5 5.86666 19.375 6.57066 19.125 7.26199C18.875 7.95399 18.4333 8.72066 17.8 9.56199C17.1667 10.404 16.3083 11.3667 15.225 12.45C14.1417 13.5333 12.7667 14.825 11.1 16.325L10 17.325ZM10 15.3C11.6 13.8667 12.9167 12.6333 13.95 11.6C14.9833 10.5667 15.8 9.67066 16.4 8.91199C17 8.15399 17.4167 7.48333 17.65 6.89999C17.8833 6.31666 18 5.73333 18 5.14999C18 4.14999 17.6667 3.31666 17 2.64999C16.3333 1.98333 15.5 1.64999 14.5 1.64999C13.7167 1.64999 12.9873 1.87499 12.312 2.32499C11.8272 2.64839 11.4175 3.06216 11.0831 3.56631C10.8371 3.93731 10.4417 4.19999 9.99653 4.19999C9.55494 4.19999 9.16159 3.94181 8.91792 3.57353C8.57413 3.05394 8.15982 2.63343 7.675 2.31199C7.00833 1.87066 6.28333 1.64999 5.5 1.64999C4.5 1.64999 3.66667 1.98333 3 2.64999C2.33333 3.31666 2 4.14999 2 5.14999C2 5.73333 2.11667 6.31666 2.35 6.89999C2.58333 7.48333 3 8.15399 3.6 8.91199C4.2 9.67066 5.01667 10.5623 6.05 11.587C7.08333 12.6123 8.4 13.85 10 15.3Z" />
</svg>
