<svg width="18" height="18" viewBox="0 0 18 18" fill="currentColor" xmlns="http://www.w3.org/2000/svg">
<path d="M2.39961 18C1.89961 18 1.47461 17.825 1.12461 17.475C0.774609 17.125 0.599609 16.7 0.599609 16.2V2.3C0.599609 1.8 0.774609 1.375 1.12461 1.025C1.47461 0.675 1.89961 0.5 2.39961 0.5H8.37461C8.78882 0.5 9.12461 0.835786 9.12461 1.25C9.12461 1.66421 8.78882 2 8.37461 2H2.39961C2.33294 2 2.26628 2.03333 2.19961 2.1C2.13294 2.16667 2.09961 2.23333 2.09961 2.3V16.2C2.09961 16.2667 2.13294 16.3333 2.19961 16.4C2.26628 16.4667 2.33294 16.5 2.39961 16.5H8.37461C8.78882 16.5 9.12461 16.8358 9.12461 17.25C9.12461 17.6642 8.78882 18 8.37461 18H2.39961ZM13.6749 12.9747C13.3742 13.2754 12.884 13.2668 12.594 12.9556C12.3182 12.6596 12.3263 12.1983 12.6124 11.9122L14.5246 10H6.87461C6.4604 10 6.12461 9.66421 6.12461 9.25C6.12461 8.83579 6.4604 8.5 6.87461 8.5H14.5246L12.6124 6.58783C12.3263 6.30172 12.3182 5.84042 12.594 5.5444C12.884 5.23323 13.3742 5.22458 13.6749 5.52533L17.3996 9.25L13.6749 12.9747Z" />
</svg>
