<svg width="18" height="12" viewBox="0 0 18 12" fill="currentColor" xmlns="http://www.w3.org/2000/svg">
<path d="M1 11.625C0.585787 11.625 0.25 11.2892 0.25 10.875C0.25 10.4608 0.585786 10.125 1 10.125H17C17.4142 10.125 17.75 10.4608 17.75 10.875C17.75 11.2892 17.4142 11.625 17 11.625H1ZM1 6.75C0.585787 6.75 0.25 6.41421 0.25 6C0.25 5.58579 0.585786 5.25 1 5.25H17C17.4142 5.25 17.75 5.58579 17.75 6C17.75 6.41421 17.4142 6.75 17 6.75H1ZM1 1.875C0.585787 1.875 0.25 1.53921 0.25 1.125C0.25 0.710786 0.585786 0.375 1 0.375H17C17.4142 0.375 17.75 0.710786 17.75 1.125C17.75 1.53921 17.4142 1.875 17 1.875H1Z" />
</svg>
