<svg width="12" height="18" viewBox="0 0 12 18" fill="currentColor" xmlns="http://www.w3.org/2000/svg">
<path fill-rule="evenodd" clip-rule="evenodd" d="M5.99941 0.0136457C8.42432 0.102259 10.3277 2.14588 10.2693 4.59804C10.2108 7.0502 8.21223 8.99876 5.78591 8.96919C3.35959 8.93962 1.40806 6.94292 1.4081 4.49005C1.45475 1.973 3.50937 -0.030201 5.99941 0.0136457ZM5.99844 2.62457C7.00908 2.66088 7.80281 3.51221 7.77887 4.53419C7.75493 5.55617 6.92223 6.36856 5.91102 6.35647C4.89982 6.34438 4.08635 5.51232 4.08632 4.49005C4.10559 3.44153 4.96117 2.60683 5.99844 2.62457ZM5.99786 10.3561C7.10102 10.4705 8.20999 10.2038 9.14397 9.59946C9.14397 9.59946 10.5632 8.59554 11.5008 9.97779C11.5008 9.97779 12.505 12.2216 8.75117 12.6299C8.75117 12.6299 8.19532 12.6824 8.35837 13.0083C8.52142 13.3342 10.9523 15.4281 11.108 16.0387C11.2636 16.6493 11.5156 16.8141 10.7152 17.5521C9.91475 18.29 9.28108 18.1215 7.96187 16.7954C6.64265 15.4693 5.99786 14.9 5.99786 14.9V10.3561ZM5.99914 10.3561C4.89716 10.4704 3.7894 10.2037 2.85674 9.59945C2.85674 9.59945 1.43747 8.59554 0.499933 9.97779C0.499933 9.97779 -0.504301 12.2216 3.24954 12.6299C3.24954 12.6299 3.80539 12.6824 3.64234 13.0083C3.47929 13.3342 1.04837 15.4281 0.892734 16.0387C0.737096 16.6493 0.485111 16.8141 1.28553 17.5521C2.08596 18.29 2.71963 18.1215 4.03514 16.7954C5.35065 15.4693 5.99914 14.9 5.99914 14.9V10.3561Z" />
</svg>
