<svg width="14" height="22" viewBox="0 0 14 22" fill="currentColor" xmlns="http://www.w3.org/2000/svg">
<path d="M2.3 21.5C1.8 21.5 1.375 21.325 1.025 20.975C0.675 20.625 0.5 20.2 0.5 19.7V2.3C0.5 1.8 0.675 1.375 1.025 1.025C1.375 0.675 1.8 0.5 2.3 0.5H11.7C12.2 0.5 12.625 0.675 12.975 1.025C13.325 1.375 13.5 1.8 13.5 2.3V19.7C13.5 20.2 13.325 20.625 12.975 20.975C12.625 21.325 12.2 21.5 11.7 21.5H2.3ZM2 16.775V19.7C2 19.7667 2.03333 19.8333 2.1 19.9C2.16667 19.9667 2.23333 20 2.3 20H11.7C11.7667 20 11.8333 19.9667 11.9 19.9C11.9667 19.8333 12 19.7667 12 19.7V16.775H2ZM7 19.275C7.25 19.275 7.45833 19.1873 7.625 19.012C7.79167 18.8373 7.875 18.625 7.875 18.375C7.875 18.1417 7.79167 17.9373 7.625 17.762C7.45833 17.5873 7.25 17.5 7 17.5C6.75 17.5 6.54167 17.5873 6.375 17.762C6.20833 17.9373 6.125 18.1417 6.125 18.375C6.125 18.625 6.20833 18.8373 6.375 19.012C6.54167 19.1873 6.75 19.275 7 19.275ZM2 15.275H12V4.75H2V15.275ZM2 3.25H12V2.3C12 2.23333 11.9667 2.16667 11.9 2.1C11.8333 2.03333 11.7667 2 11.7 2H2.3C2.23333 2 2.16667 2.03333 2.1 2.1C2.03333 2.16667 2 2.23333 2 2.3V3.25ZM2 16.775V20V19.7V16.775Z" />
</svg>
