<svg width="16" height="14" viewBox="0 0 16 14" fill="currentColor" xmlns="http://www.w3.org/2000/svg">
<path d="M1 13.75C0.585786 13.75 0.25 13.4142 0.25 13C0.25 12.5858 0.585786 12.25 1 12.25H9C9.41421 12.25 9.75 12.5858 9.75 13C9.75 13.4142 9.41421 13.75 9 13.75H1ZM1 9.75C0.585787 9.75 0.25 9.41421 0.25 9C0.25 8.58579 0.585786 8.25 1 8.25H15C15.4142 8.25 15.75 8.58579 15.75 9C15.75 9.41421 15.4142 9.75 15 9.75H1ZM1 5.75C0.585787 5.75 0.25 5.41421 0.25 5C0.25 4.58579 0.585786 4.25 1 4.25H15C15.4142 4.25 15.75 4.58579 15.75 5C15.75 5.41421 15.4142 5.75 15 5.75H1ZM1 1.75C0.585787 1.75 0.25 1.41421 0.25 1C0.25 0.585786 0.585786 0.25 1 0.25H15C15.4142 0.25 15.75 0.585786 15.75 1C15.75 1.41421 15.4142 1.75 15 1.75H1Z" />
</svg>
