<svg width="17" height="15" viewBox="0 0 17 15" fill="currentColor" xmlns="http://www.w3.org/2000/svg">
<path d="M16.253 2.62587C16.1737 2.64901 16.0944 2.67056 16.0151 2.69063C15.5305 2.81291 15.4859 2.65155 15.8368 2.29555C15.994 2.13603 16.1328 1.96252 16.2534 1.77512C16.5237 1.35489 16.2892 1.17162 15.8294 1.36792C15.6654 1.43795 15.4986 1.50144 15.3296 1.55804C14.8558 1.71704 14.1834 1.4772 13.7613 1.20964C13.2283 0.871903 12.6225 0.703125 11.9439 0.703125C10.9932 0.703125 10.1829 1.03814 9.51256 1.70764C8.84237 2.37749 8.5071 3.18739 8.5071 4.13707C8.5071 4.26695 8.51453 4.39881 8.5292 4.5325C8.55328 4.75011 8.1865 4.90786 7.69156 4.83801C6.62091 4.68697 5.60368 4.3628 4.63967 3.86587C3.68361 3.3731 2.83982 2.753 2.10843 2.00552C1.75882 1.64828 1.28596 1.67905 1.15542 2.1613C1.07721 2.45038 1.03831 2.75102 1.03831 3.06327C1.03831 3.65172 1.1766 4.19748 1.45324 4.70057C1.59083 4.95093 1.75195 5.17758 1.93698 5.38038C2.2482 5.72175 2.20058 5.91982 1.76736 5.79845C1.33433 5.67709 1.01699 5.4969 1.01699 5.50866C1.01699 5.52043 1.01699 5.53 1.01699 5.53C1.01699 6.35906 1.2775 7.08752 1.79887 7.71469C2.12003 8.10108 2.49313 8.39956 2.91803 8.60978C3.36609 8.83155 3.57482 8.95525 3.32427 8.98765C3.17311 9.00719 3.02103 9.01694 2.86807 9.01694C2.76454 9.01694 2.65591 9.01224 2.54259 9.00267C2.36336 8.98747 2.33115 9.36065 2.60288 9.77999C2.81885 10.1132 3.09528 10.4064 3.43203 10.6597C3.77455 10.9175 4.14369 11.1025 4.53886 11.2152C5.01969 11.3522 5.11619 11.6016 4.68747 11.8585C3.62661 12.4946 2.45261 12.8126 1.16563 12.8126C1.02062 12.8126 0.882304 12.8093 0.750166 12.803C0.520796 12.792 0.674676 12.9938 1.11747 13.2255C2.50112 13.9497 3.99954 14.3115 5.61294 14.3115C6.83277 14.3115 7.97834 14.1185 9.04953 13.7322C10.1203 13.346 11.0355 12.8285 11.7944 12.18C12.5533 11.5314 13.2077 10.7856 13.7575 9.94206C14.3071 9.09855 14.7166 8.21792 14.9864 7.30025C15.2557 6.38238 15.3906 5.4627 15.3906 4.54122C15.3906 4.45819 15.3899 4.38364 15.3887 4.31799C15.3861 4.19462 15.7127 3.86067 16.0773 3.51897C16.2419 3.36468 16.3988 3.20276 16.5487 3.03291C16.8794 2.65788 16.733 2.48603 16.253 2.62587Z" />
</svg>
