<svg width="20" height="12" viewBox="0 0 20 12" fill="currentColor" xmlns="http://www.w3.org/2000/svg">
<path fill-rule="evenodd" clip-rule="evenodd" d="M9.63646 11.8275H10.7328C10.9225 11.8052 11.0997 11.7208 11.2368 11.5872C11.3376 11.4297 11.3901 11.246 11.3877 11.0587C11.3877 11.0587 11.3656 9.42524 12.0499 9.18872C12.7268 8.95219 13.5914 10.7483 14.5111 11.4394C14.8432 11.7402 15.2887 11.8817 15.7325 11.8275L18.1901 11.8312C18.1901 11.8312 19.4741 11.724 18.867 10.619C18.8155 10.5266 18.5102 9.79851 17.0386 8.30175C15.4971 6.73846 15.7068 6.98977 17.561 4.28451C18.6904 2.63623 19.143 1.6273 19.0032 1.1986C18.867 0.788371 18.0429 0.85859 18.0429 0.85859L15.269 0.854894C15.1447 0.846144 15.0205 0.874426 14.9121 0.9362C14.8032 1.02951 14.7197 1.14903 14.6693 1.2836C14.3865 2.10328 14.0447 2.9012 13.6466 3.67102C12.4141 5.95867 11.9211 6.08063 11.7224 5.93649C11.2515 5.60758 11.3693 4.60604 11.3693 3.89646C11.3693 1.67904 11.6783 0.751414 10.7696 0.511193C10.3494 0.401929 9.91566 0.354622 9.48194 0.370756C8.49229 0.359669 7.65716 0.374452 7.18625 0.629456C6.86986 0.799459 6.62704 1.17273 6.7742 1.1949C7.09612 1.2275 7.39097 1.39027 7.59094 1.64578C7.87422 2.06709 7.86686 3.01688 7.86686 3.01688C7.86686 3.01688 8.02874 5.62605 7.48425 5.95128C7.11267 6.17302 6.60129 5.71845 5.50127 3.64146C5.12686 2.90851 4.79758 2.15316 4.51531 1.37968C4.46596 1.25149 4.38792 1.13642 4.28721 1.04338C4.16171 0.950039 4.01724 0.885681 3.86413 0.854894H1.23365C1.03607 0.857878 0.845361 0.928251 0.692839 1.05446C0.623257 1.21807 0.620614 1.40262 0.685481 1.56817C0.685481 1.56817 2.74203 6.8789 5.07083 9.53611C7.20832 11.9716 9.63646 11.8275 9.63646 11.8275Z" />
</svg>
